<?xml version="1.0" encoding="UTF-8" standalone="no"?>
<!-- Created with Inkscape (http://www.inkscape.org/) -->
<svg xmlns:dc="http://purl.org/dc/elements/1.1/" xmlns:cc="http://creativecommons.org/ns#" xmlns:rdf="http://www.w3.org/1999/02/22-rdf-syntax-ns#" xmlns:svg="http://www.w3.org/2000/svg" xmlns="http://www.w3.org/2000/svg" version="1.1" width="2139" height="1269" id="svg3005">
  <metadata id="metadata3011">
    <rdf:RDF>
      <cc:Work rdf:about="">
        <dc:format>image/svg+xml</dc:format>
        <dc:type rdf:resource="http://purl.org/dc/dcmitype/StillImage"/>
        <dc:title/>
      </cc:Work>
    </rdf:RDF>
  </metadata>
  <defs id="defs3009"/>
  <g id="g3015">
    <path d="m 266.33627,758.25 c 0.36794,-0.60742 67.83664,-207.7732 78.44769,-240.87726 l 2.92561,-9.12727 L 241.16963,430.87274 134.62968,353.5 266.5224,353 398.41513,352.5 438.95757,227.75205 c 22.29833,-68.61137 40.77003,-124.74887 41.0482,-124.75 0.27818,-10e-4 18.75204,56.13545 41.05304,124.74795 l 40.54726,124.75 131.89518,0.5 131.89519,0.5 -105.94822,76.88248 c -58.27152,42.28536 -106.23137,77.16036 -106.57743,77.5 -0.34607,0.33963 17.68939,56.86752 40.07879,125.61752 22.38941,68.75 40.5919,125.15565 40.44998,125.3459 -0.14191,0.19024 -48.00312,-34.34726 -106.35823,-76.75 C 528.68621,639.69315 480.52942,605 480.02624,605 c -0.50319,0 -48.60672,34.65 -106.89674,77 -58.29001,42.35 -106.26663,77 -106.61469,77 -0.34806,0 -0.42841,-0.3375 -0.17854,-0.75 z" id="path3023" style="fill:#fdfdfd"/>
    <path d="m 1264.512,1181.4445 c -2.4378,-2.7195 -6.8419,-7.8695 -9.7869,-11.4445 -2.945,-3.575 -6.7234,-7.4241 -8.3963,-8.5536 -1.6729,-1.1295 -11.0938,-4.7217 -20.9352,-7.9828 l -17.8936,-5.9292 7.5,-0.6365 c 4.125,-0.3501 11.7,-0.6953 16.8333,-0.7672 5.3673,-0.075 9.1917,-0.532 9,-1.0751 -0.1833,-0.5194 -5.314,-6.9319 -11.4016,-14.25 -6.0875,-7.3181 -29.0035,-35.5806 -50.9245,-62.8056 -21.921,-27.225 -42.5081,-52.726 -45.7492,-56.6689 -5.2194,-6.3496 -8.3658,-9.0566 -9.3652,-8.0572 -0.1766,0.1765 1.6609,6.3746 4.0832,13.7735 2.4223,7.3989 4.8333,15.3651 5.3578,17.7026 l 0.9536,4.25 -3.5154,0 c -13.2978,0 -42.4085,-6.5563 -67.1699,-15.128 -16.7468,-5.7973 -18.1756,-6.1184 -29.4045,-6.6078 -13.6177,-0.5936 -13.0986,-0.8471 -21.3872,10.4427 -7.0706,9.6307 -7.7528,8.6943 -3.7004,-5.0798 2.1534,-7.3197 2.3723,-9.0354 1.2502,-9.8013 -2.409,-1.6443 -30.54745,-0.2796 -38.57905,1.871 -5.17258,1.3851 -6.91235,1.5637 -6.13758,0.6302 1.53078,-1.8445 7.47796,-5.4082 11.73871,-7.0342 3.28005,-1.2518 2.39415,-1.3302 -9.49125,-0.8399 -7.20994,0.2974 -14.63494,0.7704 -16.5,1.0512 -3.31019,0.4984 -3.28556,0.46 1.03288,-1.6104 5.10936,-2.4497 20.49686,-5.8301 27.07609,-5.9482 7.53658,-0.1354 2.10357,-1.74385 -15,-4.44083 l -15.5,-2.44412 23.5,0.41567 c 24.50869,0.43351 29.7313,1.09927 46.5,5.92768 15.6884,4.5174 83.742,18.0208 84.9139,16.8489 0.9106,-0.9106 -4.1723,-13.2301 -8.441,-20.45888 -5.0165,-8.49494 -11.2706,-14.89253 -42.175,-43.14295 -23.0332,-21.05518 -27.3935,-25.86075 -32.281,-35.57761 -3.8826,-7.71897 -5.197,-12.76133 -7.518,-28.84091 -2.17,-15.03344 -5.3392,-26.09287 -8.9171,-31.11752 -4.27494,-6.00366 -51.53221,-37.82093 -82.85863,-55.7869 -32.41034,-18.58762 -49.72568,-26.23367 -62.18607,-27.45992 -21.88762,-2.154 -34.88094,-6.95798 -47.0371,-17.39088 -4.00781,-3.43966 -12.14524,-8.5306 -21.2236,-13.27789 -8.09798,-4.23464 -14.35901,-7.82483 -13.9134,-7.97821 0.44561,-0.15337 8.1011,0.8093 17.01219,2.13927 15.97391,2.38409 16.27009,2.39225 21.04061,0.5796 2.66124,-1.0112 7.14388,-2.14434 9.96141,-2.5181 2.81754,-0.37376 5.12279,-1.06112 5.12279,-1.52748 0,-1.80614 -10.38535,-8.92044 -20.79427,-14.24473 -11.69539,-5.98234 -12.69534,-6.76794 -13.69766,-10.76153 C 794.609,706.30601 797.13636,704 801.96142,704 c 5.5278,0 13.45805,6.24052 27.33141,21.50779 8.64254,9.51088 12.74448,13.24773 16.40235,14.94244 2.68273,1.24293 7.5613,4.74222 10.84126,7.77619 6.55492,6.06334 17.62427,11.94979 56.04867,29.80553 52.85504,24.56164 99.08119,49.25372 134.33639,71.7569 15.2164,9.71255 13.2465,9.79267 19.3952,-0.78885 6.4578,-11.11332 17.0309,-15.5137 37.1833,-15.4751 15.5926,0.0299 9.9562,-1.4383 94.5,24.61534 61.1242,18.83649 88.248,26.36073 99.25,27.53235 3.1625,0.33678 5.75,1.0275 5.75,1.53493 0,1.43075 -14.2371,7.66608 -22.8015,9.98621 -5.7617,1.56087 -10.8432,2.10464 -20.1985,2.16142 -11.084,0.0673 -13.8027,-0.28266 -24,-3.08924 -6.325,-1.74082 -15.9191,-4.76616 -21.3203,-6.72299 -8.6794,-3.14455 -10.0509,-3.3963 -11.806,-2.16703 -1.8481,1.29446 -1.4447,1.61828 5.8203,4.67242 4.2933,1.80486 12.531,4.96909 18.306,7.03162 l 10.5,3.75006 -10.5,5.01127 c -5.775,2.7562 -12.9195,5.7899 -15.8768,6.74157 l -5.3767,1.7303 -7.4154,-3.66921 c -5.9218,-2.93023 -7.8096,-3.45818 -9.3732,-2.62139 -1.0768,0.57631 -1.9579,1.40258 -1.9579,1.83616 0,0.43358 11.2812,6.32668 25.0692,13.09578 l 25.0693,12.30746 -3.3193,3.45104 c -3.3892,3.52383 -18.3603,16.4043 -20.5049,17.64154 -2.0395,1.1766 -50.3143,-22.21151 -50.3143,-24.3762 0,-0.46443 2.0681,-2.53903 4.5957,-4.61023 4.5888,-3.76021 4.5981,-3.76272 6.25,-1.68399 0.9099,1.14501 2.6873,2.61129 3.9498,3.2584 2.0675,1.0597 2.887,0.66415 8.25,-3.9819 3.275,-2.83716 5.9545,-5.33137 5.9545,-5.54269 0,-0.21131 -2.2694,-1.5342 -5.0431,-2.93974 l -5.0431,-2.55553 -2.4965,1.96375 -2.4965,1.96375 -7.7104,-3.50793 c -4.2407,-1.92936 -9.4089,-4.45967 -11.4848,-5.62291 l -3.7744,-2.11498 -2.1003,2.10038 -2.1004,2.10038 7.8747,4.56099 c 4.3312,2.50855 8.4168,4.91491 9.0792,5.34747 0.8135,0.53124 -1.0402,2.73364 -5.7118,6.78647 -3.8039,3.3 -6.9333,6.28064 -6.9544,6.62365 -0.021,0.34301 9.326,5.41844 20.7711,11.27873 l 20.8094,10.65507 11.1328,21.22127 c 6.1231,11.67171 14.5306,27.48718 18.6832,35.14538 4.1527,7.6583 7.3747,14.0998 7.16,14.3146 -1.3502,1.3501 -45.9316,-18.904 -68.4747,-31.10933 -6.8089,-3.68652 -12.5368,-6.54591 -12.7285,-6.35418 -0.528,0.52803 15.6396,28.28171 26.3452,45.22481 17.6973,28.0084 48.0482,70.2996 69.9725,97.5 l 6.8512,8.5 6.9698,-0.01 c 3.8334,0 10.6823,-0.389 15.2198,-0.8541 9.6948,-0.9936 10.8099,0.1904 2.6128,2.7743 -3.1005,0.9774 -7.6671,2.6471 -10.1481,3.7106 l -4.5108,1.9336 2.398,2.5683 c 1.319,1.4126 5.9981,5.0854 10.3981,8.1619 11.3523,7.9374 19.5,14.3638 19.5,15.3805 0,1.4542 -4.859,-0.1824 -18.875,-6.3573 -7.3563,-3.241 -13.6199,-5.6478 -13.9191,-5.3485 -0.2993,0.2993 0.9581,5.0419 2.7941,10.5392 1.836,5.4973 3.0246,10.3087 2.6413,10.6921 -0.3834,0.3833 -2.6916,-1.5281 -5.1293,-4.2476 z M 838,750.5567 C 838,748.28447 833.9073,746 829.83651,746 c -4.78824,0 -5.5278,1.31107 -2.21118,3.91993 C 830.78529,752.40555 838,752.84837 838,750.5567 z m 804,372.7929 c -45.3197,-4.2767 -74.6028,-9.3961 -124.5,-21.7655 -52.0151,-12.8945 -78.6911,-21.231 -131.5,-41.0949 -67.6985,-25.4646 -122.0408,-47.6317 -155.22,-63.31685 l -12.7201,-6.01326 -6.5299,-13.48506 c -3.5915,-7.41678 -6.53,-13.68884 -6.53,-13.9379 0,-0.24907 10.9125,4.25515 24.25,10.00937 44.7189,19.29314 108.8989,44.3086 113.4491,44.2191 0.9905,-0.019 2.9259,-0.6606 4.3009,-1.4247 l 2.5,-1.3892 -2.5,-0.933 c -1.375,-0.5131 -11.5,-4.2041 -22.5,-8.2023 -27.334,-9.93496 -52.0145,-19.48849 -70.5,-27.28969 -18.405,-7.76724 -35,-15.40889 -35,-16.11682 0,-0.27891 1.4922,-1.64523 3.3159,-3.03626 l 3.3159,-2.52916 15.9341,7.04989 c 22.684,10.03631 69.0463,28.36954 95.7293,37.85454 22.788,8.1005 22.7962,8.1026 26.25,6.4636 4.1706,-1.979 4.3753,-3.1515 0.7048,-4.0364 -4.7139,-1.1365 -51.7748,-17.85948 -72.75,-25.8516 -17.6622,-6.72978 -60.2853,-24.20074 -61.4271,-25.17859 -0.6701,-0.57392 5.1698,-6.34491 6.4207,-6.34491 0.6157,0 7.844,2.71903 16.0629,6.04229 32.1754,13.00988 78.1405,29.22091 111.7757,39.42117 16.5508,5.01923 19.1769,5.5683 21.6777,4.53244 1.565,-0.64826 3.6036,-2.01628 4.5301,-3.04005 1.601,-1.76915 1.5427,-1.89318 -1.1778,-2.50263 -32.7079,-7.32755 -112.8649,-33.31546 -144.6944,-46.9118 l -3.8323,-1.63699 2.6508,-3.4754 2.6509,-3.47541 -17.2681,-8.43166 c -13.0715,-6.38257 -16.7942,-8.5981 -15.3185,-9.11656 1.0721,-0.37669 5.2654,-2.03626 9.3182,-3.68793 l 7.3689,-3.00304 7.6311,2.73305 c 9.1697,3.28407 71.0043,25.04148 73.1205,25.72853 1.0084,0.32739 -0.2259,1.71571 -3.8227,4.29979 -3.8598,2.773 -4.9504,4.04528 -3.9893,4.65391 1.7083,1.08184 29.2366,9.87029 30.9169,9.87029 0.7024,0 3.331,-1.69147 5.8414,-3.75881 2.5104,-2.06735 5.31,-4.33765 6.2212,-5.04511 1.39,-1.07913 8.3154,0.31734 43,8.67073 22.7388,5.47636 45.0557,10.74829 49.5932,11.71541 4.5375,0.96711 8.25,2.07754 8.25,2.46762 0,0.39008 -2.025,2.36857 -4.5,4.39665 -2.475,2.02807 -4.5,4.05254 -4.5,4.49882 0,0.8739 0.4607,1.01199 21.493,6.44203 7.6961,1.98696 14.758,3.61266 15.693,3.61266 0.9351,0 4.8877,-2.75036 8.7838,-6.11192 l 7.0837,-6.11192 14.7233,2.14538 c 31.2173,4.54879 87.1635,12.19113 110.3339,15.07178 13.3254,1.65668 24.3893,3.17338 24.5864,3.37048 0.1971,0.197 -1.7366,2.6883 -4.2971,5.5362 -2.5605,2.8479 -4.4801,5.3532 -4.2658,5.5675 0.6412,0.6412 28.4768,5.3508 41.3658,6.9988 6.6,0.8439 13.462,1.7308 15.249,1.971 3.0232,0.4063 3.8011,-0.1883 11.1954,-8.5571 l 7.9464,-8.9937 44.3046,-0.3298 c 57.2736,-0.4263 104.3594,-3.8778 138.6905,-10.16629 7.3623,-1.34856 13.565,-2.27281 13.7839,-2.0539 0.6601,0.66001 -7.4292,10.41429 -14.0026,16.88479 -18.9853,18.6883 -46.0332,33.1592 -71.6672,38.3425 -15.2388,3.0814 -75.5187,1.0291 -121.5,-4.1364 -31.5378,-3.543 -83.6545,-12.3858 -115.3742,-19.5759 -12.3494,-2.7993 -13.4989,-2.907 -15,-1.4054 -1.4332,1.4335 -1.4481,1.7411 -0.1258,2.5957 2.4541,1.5861 16.409,5.7231 34,10.0795 9.075,2.2474 16.6402,4.2172 16.8117,4.3774 0.1714,0.1602 -1.0812,1.8776 -2.7836,3.8165 -1.7024,1.9389 -2.7426,3.7327 -2.3117,3.9863 0.8903,0.5238 28.4391,7.0554 38.2836,9.0768 l 6.5,1.3346 6.1792,-6.0074 6.1791,-6.0073 8.3209,1.6372 c 12.6733,2.4937 33.4065,5.3659 52.8208,7.3174 18.6835,1.878 74.3726,2.5831 82.9682,1.0505 l 4.4682,-0.7967 -2.4682,2.6883 c -3.84,4.1825 -19.4343,14.1145 -30.4682,19.4052 -23.3438,11.1932 -34.3115,13.4896 -60.5,12.6673 -10.175,-0.3195 -24.575,-1.4788 -32,-2.5762 -27.282,-4.0324 -51.051,-8.1513 -64.1079,-11.1092 -14.6816,-3.326 -72.602,-18.0155 -80.0636,-20.3054 -4.474,-1.373 -6.8285,-0.8604 -6.8285,1.4865 0,0.8858 19.4628,7.2265 36.6322,11.9342 6.5273,1.7897 12.2474,3.577 12.7114,3.9719 0.4639,0.3949 -0.8267,2.5666 -2.868,4.8261 l -3.7115,4.1082 3.3755,1.4104 c 5.0336,2.1031 32.3073,9.4438 37.7902,10.1712 4.7451,0.6294 4.7948,0.6058 9.0105,-4.2883 l 4.2391,-4.9213 12.6603,2.797 c 24.5148,5.416 62.3594,11.138 79.9831,12.0932 l 4.3227,0.2343 -5.0008,3.8027 c -13.7283,10.4392 -29.8818,18.1273 -44.3525,21.1091 -7.115,1.466 -33.3697,2.0158 -44.7922,0.9378 z" id="path3021" style="fill:#fdf000"/>
    <path d="m 1291.8724,1171.25 c -1.2438,-1.5861 -1.2085,-1.6214 0.3776,-0.3776 0.9625,0.7549 1.75,1.5424 1.75,1.75 0,0.8231 -0.8212,0.2933 -2.1276,-1.3724 z m -84.873,-24.5 c 3e-4,-0.4125 3.2631,-0.6887 7.2506,-0.6138 7.6348,0.1434 6.802,0.5909 -2.0006,1.075 -2.8879,0.1589 -5.2504,-0.049 -5.25,-0.4612 z m 58.2714,-4.3542 c 0.3323,-0.3323 1.1948,-0.3678 1.9167,-0.079 0.7977,0.3192 0.5608,0.5562 -0.6042,0.6042 -1.0541,0.043 -1.6448,-0.193 -1.3125,-0.5253 z M 1285,1142.059 c 0,-0.5824 0.45,-1.059 1,-1.059 0.55,0 1,0.1984 1,0.441 0,0.2425 -0.45,0.7191 -1,1.059 -0.55,0.3399 -1,0.1415 -1,-0.441 z m -12.269,-0.7149 c 0.677,-0.274 2.027,-0.2906 3,-0.037 0.9729,0.2536 0.419,0.4777 -1.231,0.4981 -1.65,0.02 -2.4461,-0.1871 -1.769,-0.461 z m -36.8586,-2.0941 c -1.2438,-1.5861 -1.2085,-1.6214 0.3776,-0.3776 0.9625,0.7549 1.75,1.5424 1.75,1.75 0,0.8231 -0.8212,0.2933 -2.1276,-1.3724 z m 15,-1 c -1.2438,-1.5861 -1.2085,-1.6214 0.3776,-0.3776 0.9625,0.7549 1.75,1.5424 1.75,1.75 0,0.8231 -0.8212,0.2933 -2.1276,-1.3724 z m 408.3776,-13.989 c 3.1625,-0.1984 8.3375,-0.1984 11.5,0 3.1625,0.1985 0.575,0.3608 -5.75,0.3608 -6.325,0 -8.9125,-0.1623 -5.75,-0.3608 z m -20.0117,-0.9481 c 0.9561,-0.2503 2.7561,-0.2594 4,-0.02 1.244,0.2392 0.4617,0.444 -1.7383,0.4551 -2.2,0.011 -3.2177,-0.1846 -2.2617,-0.4349 z m 42.0325,0.083 c 0.3323,-0.3323 1.1948,-0.3678 1.9167,-0.079 0.7977,0.3192 0.5608,0.5562 -0.6042,0.6042 -1.0541,0.043 -1.6448,-0.193 -1.3125,-0.5253 z m -460.3984,-2.1458 c -1.2438,-1.5861 -1.2085,-1.6214 0.3776,-0.3776 0.9625,0.7549 1.75,1.5424 1.75,1.75 0,0.8231 -0.8212,0.2933 -2.1276,-1.3724 z m 407.8776,1.0877 c 0.6875,-0.2774 1.8125,-0.2774 2.5,0 0.6875,0.2774 0.125,0.5044 -1.25,0.5044 -1.375,0 -1.9375,-0.227 -1.25,-0.5044 z m -9,-1 c 0.6875,-0.2774 1.8125,-0.2774 2.5,0 0.6875,0.2774 0.125,0.5044 -1.25,0.5044 -1.375,0 -1.9375,-0.227 -1.25,-0.5044 z m -8.4792,-0.9419 c 0.3323,-0.3323 1.1948,-0.3678 1.9167,-0.079 0.7977,0.3192 0.5608,0.5562 -0.6042,0.6042 -1.0541,0.043 -1.6448,-0.193 -1.3125,-0.5253 z m -7.5208,-1.0581 c 0.6875,-0.2774 1.8125,-0.2774 2.5,0 0.6875,0.2774 0.125,0.5044 -1.25,0.5044 -1.375,0 -1.9375,-0.227 -1.25,-0.5044 z m -6.4792,-0.9419 c 0.3323,-0.3323 1.1948,-0.3678 1.9167,-0.079 0.7977,0.3192 0.5608,0.5562 -0.6042,0.6042 -1.0541,0.043 -1.6448,-0.193 -1.3125,-0.5253 z m -7,-1 c 0.3323,-0.3323 1.1948,-0.3678 1.9167,-0.079 0.7977,0.3192 0.5608,0.5562 -0.6042,0.6042 -1.0541,0.043 -1.6448,-0.193 -1.3125,-0.5253 z m -6,-1 c 0.3323,-0.3323 1.1948,-0.3678 1.9167,-0.079 0.7977,0.3192 0.5608,0.5562 -0.6042,0.6042 -1.0541,0.043 -1.6448,-0.193 -1.3125,-0.5253 z m -6,-1 c 0.3323,-0.3323 1.1948,-0.3678 1.9167,-0.079 0.7977,0.3192 0.5608,0.5562 -0.6042,0.6042 -1.0541,0.043 -1.6448,-0.193 -1.3125,-0.5253 z M 1207.8724,1105.25 c -1.2438,-1.5861 -1.2085,-1.6214 0.3776,-0.3776 0.9625,0.7549 1.75,1.5424 1.75,1.75 0,0.8231 -0.8212,0.2933 -2.1276,-1.3724 z m 514.3776,-8.9393 c 0.9625,-0.2516 2.5375,-0.2516 3.5,0 0.9625,0.2515 0.175,0.4573 -1.75,0.4573 -1.925,0 -2.7125,-0.2058 -1.75,-0.4573 z m -9.5,-0.973 c 0.6875,-0.2774 1.8125,-0.2774 2.5,0 0.6875,0.2774 0.125,0.5044 -1.25,0.5044 -1.375,0 -1.9375,-0.227 -1.25,-0.5044 z m -8,-1 c 0.6875,-0.2774 1.8125,-0.2774 2.5,0 0.6875,0.2774 0.125,0.5044 -1.25,0.5044 -1.375,0 -1.9375,-0.227 -1.25,-0.5044 z m -7,-1 c 0.6875,-0.2774 1.8125,-0.2774 2.5,0 0.6875,0.2774 0.125,0.5044 -1.25,0.5044 -1.375,0 -1.9375,-0.227 -1.25,-0.5044 z m -6.4792,-0.9419 c 0.3323,-0.3323 1.1948,-0.3678 1.9167,-0.079 0.7977,0.3192 0.5608,0.5562 -0.6042,0.6042 -1.0541,0.043 -1.6448,-0.193 -1.3125,-0.5253 z m -66,-1 c 0.3323,-0.3323 1.1948,-0.3678 1.9167,-0.079 0.7977,0.3192 0.5608,0.5562 -0.6042,0.6042 -1.0541,0.043 -1.6448,-0.193 -1.3125,-0.5253 z M 1633,1088.5 c 1.8658,-1.925 3.6173,-3.5 3.8923,-3.5 0.275,0 -1.0265,1.575 -2.8923,3.5 -1.8658,1.925 -3.6173,3.5 -3.8923,3.5 -0.275,0 1.0265,-1.575 2.8923,-3.5 z m 52.2708,2.8958 c 0.3323,-0.3323 1.1948,-0.3678 1.9167,-0.079 0.7977,0.3192 0.5608,0.5562 -0.6042,0.6042 -1.0541,0.043 -1.6448,-0.193 -1.3125,-0.5253 z m -65,-1 c 0.3323,-0.3323 1.1948,-0.3678 1.9167,-0.079 0.7977,0.3192 0.5608,0.5562 -0.6042,0.6042 -1.0541,0.043 -1.6448,-0.193 -1.3125,-0.5253 z m 59,0 c 0.3323,-0.3323 1.1948,-0.3678 1.9167,-0.079 0.7977,0.3192 0.5608,0.5562 -0.6042,0.6042 -1.0541,0.043 -1.6448,-0.193 -1.3125,-0.5253 z m -6,-1 c 0.3323,-0.3323 1.1948,-0.3678 1.9167,-0.079 0.7977,0.3192 0.5608,0.5562 -0.6042,0.6042 -1.0541,0.043 -1.6448,-0.193 -1.3125,-0.5253 z m 53.449,-1.1265 c 2.3209,-0.2098 6.3709,-0.2122 9,-0.01 2.6291,0.2067 0.7302,0.3783 -4.2198,0.3813 -4.95,0 -7.1011,-0.166 -4.7802,-0.3757 z m -16.4698,-0.9586 c 0.9625,-0.2516 2.5375,-0.2516 3.5,0 0.9625,0.2515 0.175,0.4573 -1.75,0.4573 -1.925,0 -2.7125,-0.2058 -1.75,-0.4573 z m 37.0208,0.085 c 0.3323,-0.3323 1.1948,-0.3678 1.9167,-0.079 0.7977,0.3192 0.5608,0.5562 -0.6042,0.6042 -1.0541,0.043 -1.6448,-0.193 -1.3125,-0.5253 z m -46.5208,-1.0581 c 0.6875,-0.2774 1.8125,-0.2774 2.5,0 0.6875,0.2774 0.125,0.5044 -1.25,0.5044 -1.375,0 -1.9375,-0.227 -1.25,-0.5044 z m 52.5208,0.058 c 0.3323,-0.3323 1.1948,-0.3678 1.9167,-0.079 0.7977,0.3192 0.5608,0.5562 -0.6042,0.6042 -1.0541,0.043 -1.6448,-0.193 -1.3125,-0.5253 z m -562.3984,-2.1458 c -1.2438,-1.5861 -1.2085,-1.6214 0.3776,-0.3776 0.9625,0.7549 1.75,1.5424 1.75,1.75 0,0.8231 -0.8212,0.2933 -2.1276,-1.3724 z m 502.3984,1.1458 c 0.3323,-0.3323 1.1948,-0.3678 1.9167,-0.079 0.7977,0.3192 0.5608,0.5562 -0.6042,0.6042 -1.0541,0.043 -1.6448,-0.193 -1.3125,-0.5253 z m -7,-1 c 0.3323,-0.3323 1.1948,-0.3678 1.9167,-0.079 0.7977,0.3192 0.5608,0.5562 -0.6042,0.6042 -1.0541,0.043 -1.6448,-0.193 -1.3125,-0.5253 z m -7,-1 c 0.3323,-0.3323 1.1948,-0.3678 1.9167,-0.079 0.7977,0.3192 0.5608,0.5562 -0.6042,0.6042 -1.0541,0.043 -1.6448,-0.193 -1.3125,-0.5253 z m -6,-1 c 0.3323,-0.3323 1.1948,-0.3678 1.9167,-0.079 0.7977,0.3192 0.5608,0.5562 -0.6042,0.6042 -1.0541,0.043 -1.6448,-0.193 -1.3125,-0.5253 z m -6,-1 c 0.3323,-0.3323 1.1948,-0.3678 1.9167,-0.079 0.7977,0.3192 0.5608,0.5562 -0.6042,0.6042 -1.0541,0.043 -1.6448,-0.193 -1.3125,-0.5253 z m -480.3984,-2.1458 c -1.2438,-1.5861 -1.2085,-1.6214 0.3776,-0.3776 0.9625,0.7549 1.75,1.5424 1.75,1.75 0,0.8231 -0.8212,0.2933 -2.1276,-1.3724 z m 398.7102,0.8836 c -0.2945,-0.4764 0.4665,-1.7139 1.691,-2.75 2.2206,-1.8787 2.2218,-1.8782 0.4742,0.1976 -0.9637,1.1446 -1.4512,2.3821 -1.0833,2.75 0.3679,0.3678 0.3954,0.6688 0.061,0.6688 -0.3342,0 -0.8486,-0.3899 -1.1431,-0.8664 z m 75.6882,0.2622 c 0.3323,-0.3323 1.1948,-0.3678 1.9167,-0.079 0.7977,0.3192 0.5608,0.5562 -0.6042,0.6042 -1.0541,0.043 -1.6448,-0.193 -1.3125,-0.5253 z m -6,-1 c 0.3323,-0.3323 1.1948,-0.3678 1.9167,-0.079 0.7977,0.3192 0.5608,0.5562 -0.6042,0.6042 -1.0541,0.043 -1.6448,-0.193 -1.3125,-0.5253 z m -7,-1 c 0.3323,-0.3323 1.1948,-0.3678 1.9167,-0.079 0.7977,0.3192 0.5608,0.5562 -0.6042,0.6042 -1.0541,0.043 -1.6448,-0.193 -1.3125,-0.5253 z m -465.3984,-4.1458 c -1.2438,-1.5861 -1.2085,-1.6214 0.3776,-0.3776 0.9625,0.7549 1.75,1.5424 1.75,1.75 0,0.8231 -0.8212,0.2933 -2.1276,-1.3724 z m 408.4609,-2.794 c 0,-0.8008 0.375,-1.456 0.8334,-1.456 0.4583,0 0.8333,0.4234 0.8333,0.941 0,0.5175 -0.375,1.1727 -0.8333,1.456 -0.4584,0.2833 -0.8334,-0.1402 -0.8334,-0.941 z M 1816,1055.5 c 1.2917,-1.375 2.5736,-2.5 2.8486,-2.5 0.275,0 -0.5569,1.125 -1.8486,2.5 -1.2917,1.375 -2.5736,2.5 -2.8486,2.5 -0.275,0 0.5569,-1.125 1.8486,-2.5 z m -273,-2 c 0.6847,-0.825 1.4699,-1.5 1.7449,-1.5 0.275,0 -0.06,0.675 -0.7449,1.5 -0.6847,0.825 -1.4699,1.5 -1.7449,1.5 -0.275,0 0.06,-0.675 0.7449,-1.5 z m 216.7277,0.7783 c 1.7752,-0.2209 4.9252,-0.2246 7,-0.01 2.0748,0.2165 0.6223,0.3972 -3.2277,0.4017 -3.85,0 -5.5475,-0.1727 -3.7723,-0.3936 z m 36.5223,0.01 c 1.5125,-0.2291 3.9875,-0.2291 5.5,0 1.5125,0.2292 0.275,0.4166 -2.75,0.4166 -3.025,0 -4.2625,-0.1874 -2.75,-0.4166 z m -53.0117,-0.9708 c 0.9561,-0.2503 2.7561,-0.2594 4,-0.02 1.244,0.2392 0.4617,0.444 -1.7383,0.4551 -2.2,0.011 -3.2177,-0.1846 -2.2617,-0.4349 z m 67.4927,0.031 c 0.677,-0.274 2.027,-0.2906 3,-0.037 0.9729,0.2536 0.419,0.4777 -1.231,0.4981 -1.65,0.02 -2.4461,-0.1871 -1.769,-0.461 z m -168.4602,-0.9483 c 0.3323,-0.3323 1.1948,-0.3678 1.9167,-0.079 0.7977,0.3192 0.5608,0.5562 -0.6042,0.6042 -1.0541,0.043 -1.6448,-0.193 -1.3125,-0.5253 z m 88.4602,-0.052 c 0.677,-0.274 2.027,-0.2906 3,-0.037 0.9729,0.2536 0.419,0.4777 -1.231,0.4981 -1.65,0.02 -2.4461,-0.1871 -1.769,-0.461 z m -10,-1 c 0.677,-0.274 2.027,-0.2906 3,-0.037 0.9729,0.2536 0.419,0.4777 -1.231,0.4981 -1.65,0.02 -2.4461,-0.1871 -1.769,-0.461 z m -8.981,-1.0064 c 0.6875,-0.2774 1.8125,-0.2774 2.5,0 0.6875,0.2774 0.125,0.5044 -1.25,0.5044 -1.375,0 -1.9375,-0.227 -1.25,-0.5044 z m -7.4792,-0.9419 c 0.3323,-0.3323 1.1948,-0.3678 1.9167,-0.079 0.7977,0.3192 0.5608,0.5562 -0.6042,0.6042 -1.0541,0.043 -1.6448,-0.193 -1.3125,-0.5253 z m -7,-1 c 0.3323,-0.3323 1.1948,-0.3678 1.9167,-0.079 0.7977,0.3192 0.5608,0.5562 -0.6042,0.6042 -1.0541,0.043 -1.6448,-0.193 -1.3125,-0.5253 z m -7,-1 c 0.3323,-0.3323 1.1948,-0.3678 1.9167,-0.079 0.7977,0.3192 0.5608,0.5562 -0.6042,0.6042 -1.0541,0.043 -1.6448,-0.193 -1.3125,-0.5253 z m 91.4792,-0.1409 c 5.0875,-0.1815 13.4125,-0.1815 18.5,0 5.0875,0.1815 0.925,0.33 -9.25,0.33 -10.175,0 -14.3375,-0.1485 -9.25,-0.33 z m -97.4792,-0.8591 c 0.3323,-0.3323 1.1948,-0.3678 1.9167,-0.079 0.7977,0.3192 0.5608,0.5562 -0.6042,0.6042 -1.0541,0.043 -1.6448,-0.193 -1.3125,-0.5253 z m 70.9929,-0.1134 c 1.5201,-0.2298 3.7701,-0.2237 5,0.014 1.23,0.2373 -0.014,0.4254 -2.7637,0.4179 -2.75,-0.01 -3.7563,-0.2017 -2.2363,-0.4316 z m 59.0071,0.1134 c 0.3323,-0.3323 1.1948,-0.3678 1.9167,-0.079 0.7977,0.3192 0.5608,0.5562 -0.6042,0.6042 -1.0541,0.043 -1.6448,-0.193 -1.3125,-0.5253 z m -201.7008,-1.2825 c -0.3014,-0.4877 0.2346,-1.5002 1.191,-2.25 1.5514,-1.2162 1.5996,-1.185 0.4473,0.2895 -1.0557,1.3506 -1.0557,1.7474 0,2.171 0.8866,0.3558 0.9182,0.5431 0.1007,0.5973 -0.655,0.043 -1.4376,-0.3201 -1.739,-0.8078 z m 55.6562,-0.692 c 0.9494,-0.9912 1.9414,-1.587 2.2045,-1.3239 0.2631,0.2631 -0.5137,1.0741 -1.7262,1.8022 -2.1063,1.2649 -2.1276,1.2436 -0.4783,-0.4783 z m 70.0121,0.8916 c 0.9561,-0.2503 2.7561,-0.2594 4,-0.02 1.244,0.2392 0.4617,0.444 -1.7383,0.4551 -2.2,0.011 -3.2177,-0.1846 -2.2617,-0.4349 z m -12.9883,-1.0022 c 0.9625,-0.2516 2.5375,-0.2516 3.5,0 0.9625,0.2515 0.175,0.4573 -1.75,0.4573 -1.925,0 -2.7125,-0.2058 -1.75,-0.4573 z m -11.519,-0.9666 c 0.677,-0.274 2.027,-0.2906 3,-0.037 0.9729,0.2536 0.419,0.4777 -1.231,0.4981 -1.65,0.02 -2.4461,-0.1871 -1.769,-0.461 z m -11,-1 c 0.677,-0.274 2.027,-0.2906 3,-0.037 0.9729,0.2536 0.419,0.4777 -1.231,0.4981 -1.65,0.02 -2.4461,-0.1871 -1.769,-0.461 z m -9,-1 c 0.677,-0.274 2.027,-0.2906 3,-0.037 0.9729,0.2536 0.419,0.4777 -1.231,0.4981 -1.65,0.02 -2.4461,-0.1871 -1.769,-0.461 z m -7.981,-1.0064 c 0.6875,-0.2774 1.8125,-0.2774 2.5,0 0.6875,0.2774 0.125,0.5044 -1.25,0.5044 -1.375,0 -1.9375,-0.227 -1.25,-0.5044 z m -556.019,-0.9936 c 0.677,-0.274 2.027,-0.2906 3,-0.037 0.9729,0.2536 0.419,0.4777 -1.231,0.4981 -1.65,0.02 -2.4461,-0.1871 -1.769,-0.461 z m 24.1414,-1.0941 c -1.2438,-1.5861 -1.2085,-1.6214 0.3776,-0.3776 0.9625,0.7549 1.75,1.5424 1.75,1.75 0,0.8231 -0.8212,0.2933 -2.1276,-1.3724 z m 524.3984,1.1458 c 0.3323,-0.3323 1.1948,-0.3678 1.9167,-0.079 0.7977,0.3192 0.5608,0.5562 -0.6042,0.6042 -1.0541,0.043 -1.6448,-0.193 -1.3125,-0.5253 z m -557.5208,-1.0581 c 0.6875,-0.2774 1.8125,-0.2774 2.5,0 0.6875,0.2774 0.125,0.5044 -1.25,0.5044 -1.375,0 -1.9375,-0.227 -1.25,-0.5044 z m 551,0 c 0.6875,-0.2774 1.8125,-0.2774 2.5,0 0.6875,0.2774 0.125,0.5044 -1.25,0.5044 -1.375,0 -1.9375,-0.227 -1.25,-0.5044 z m -558.4792,-0.9419 c 0.3323,-0.3323 1.1948,-0.3678 1.9167,-0.079 0.7977,0.3192 0.5608,0.5562 -0.6042,0.6042 -1.0541,0.043 -1.6448,-0.193 -1.3125,-0.5253 z m 552,0 c 0.3323,-0.3323 1.1948,-0.3678 1.9167,-0.079 0.7977,0.3192 0.5608,0.5562 -0.6042,0.6042 -1.0541,0.043 -1.6448,-0.193 -1.3125,-0.5253 z m -558,-1 c 0.3323,-0.3323 1.1948,-0.3678 1.9167,-0.079 0.7977,0.3192 0.5608,0.5562 -0.6042,0.6042 -1.0541,0.043 -1.6448,-0.193 -1.3125,-0.5253 z m 551,0 c 0.3323,-0.3323 1.1948,-0.3678 1.9167,-0.079 0.7977,0.3192 0.5608,0.5562 -0.6042,0.6042 -1.0541,0.043 -1.6448,-0.193 -1.3125,-0.5253 z m -6,-1 c 0.3323,-0.3323 1.1948,-0.3678 1.9167,-0.079 0.7977,0.3192 0.5608,0.5562 -0.6042,0.6042 -1.0541,0.043 -1.6448,-0.193 -1.3125,-0.5253 z m -502.3984,-2.1458 c -1.2438,-1.5861 -1.2085,-1.6214 0.3776,-0.3776 0.9625,0.7549 1.75,1.5424 1.75,1.75 0,0.8231 -0.8212,0.2933 -2.1276,-1.3724 z m 496.3984,1.1458 c 0.3323,-0.3323 1.1948,-0.3678 1.9167,-0.079 0.7977,0.3192 0.5608,0.5562 -0.6042,0.6042 -1.0541,0.043 -1.6448,-0.193 -1.3125,-0.5253 z m -6,-1 c 0.3323,-0.3323 1.1948,-0.3678 1.9167,-0.079 0.7977,0.3192 0.5608,0.5562 -0.6042,0.6042 -1.0541,0.043 -1.6448,-0.193 -1.3125,-0.5253 z m -6,-1 c 0.3323,-0.3323 1.1948,-0.3678 1.9167,-0.079 0.7977,0.3192 0.5608,0.5562 -0.6042,0.6042 -1.0541,0.043 -1.6448,-0.193 -1.3125,-0.5253 z M 1232,1029.559 c 0,-0.2425 0.45,-0.7191 1,-1.059 0.55,-0.3399 1,-0.1415 1,0.441 0,0.5824 -0.45,1.059 -1,1.059 -0.55,0 -1,-0.1984 -1,-0.441 z m 385.2708,-0.1632 c 0.3323,-0.3323 1.1948,-0.3678 1.9167,-0.079 0.7977,0.3192 0.5608,0.5562 -0.6042,0.6042 -1.0541,0.043 -1.6448,-0.193 -1.3125,-0.5253 z m 64.4792,-10.0581 c 0.6875,-0.2774 1.8125,-0.2774 2.5,0 0.6875,0.2774 0.125,0.5044 -1.25,0.5044 -1.375,0 -1.9375,-0.227 -1.25,-0.5044 z m -8.4792,-0.9419 c 0.3323,-0.3323 1.1948,-0.3678 1.9167,-0.079 0.7977,0.3192 0.5608,0.5562 -0.6042,0.6042 -1.0541,0.043 -1.6448,-0.193 -1.3125,-0.5253 z m 19.7292,0.4784 c 0,-0.275 1.35,-1.7934 3,-3.3742 1.65,-1.5808 3,-2.6492 3,-2.3742 0,0.275 -1.35,1.7934 -3,3.3742 -1.65,1.5808 -3,2.6492 -3,2.3742 z m -655.269,-1.5301 c 0.677,-0.274 2.027,-0.2906 3,-0.037 0.9729,0.2536 0.419,0.4777 -1.231,0.4981 -1.65,0.02 -2.4461,-0.1871 -1.769,-0.461 z m 628.5398,0.052 c 0.3323,-0.3323 1.1948,-0.3678 1.9167,-0.079 0.7977,0.3192 0.5608,0.5562 -0.6042,0.6042 -1.0541,0.043 -1.6448,-0.193 -1.3125,-0.5253 z m -7,-1 c 0.3323,-0.3323 1.1948,-0.3678 1.9167,-0.079 0.7977,0.3192 0.5608,0.5562 -0.6042,0.6042 -1.0541,0.043 -1.6448,-0.193 -1.3125,-0.5253 z m -649.1919,-1.8125 c -0.043,-1.0541 0.193,-1.6448 0.5253,-1.3125 0.3323,0.3323 0.3678,1.1948 0.079,1.9167 -0.3192,0.7977 -0.5562,0.5608 -0.6042,-0.6042 z m 643.1919,0.8125 c 0.3323,-0.3323 1.1948,-0.3678 1.9167,-0.079 0.7977,0.3192 0.5608,0.5562 -0.6042,0.6042 -1.0541,0.043 -1.6448,-0.193 -1.3125,-0.5253 z m -569,-1 c 0.3323,-0.3323 1.1948,-0.3678 1.9167,-0.079 0.7977,0.3192 0.5608,0.5562 -0.6042,0.6042 -1.0541,0.043 -1.6448,-0.193 -1.3125,-0.5253 z m 563,0 c 0.3323,-0.3323 1.1948,-0.3678 1.9167,-0.079 0.7977,0.3192 0.5608,0.5562 -0.6042,0.6042 -1.0541,0.043 -1.6448,-0.193 -1.3125,-0.5253 z m -669.99997,-1 c 0.33229,-0.3323 1.1948,-0.3678 1.91667,-0.079 0.79773,0.3192 0.56078,0.5562 -0.60417,0.6042 -1.05416,0.043 -1.64479,-0.193 -1.3125,-0.5253 z m 155.60157,-1.1458 c -1.2438,-1.5861 -1.2085,-1.6214 0.3776,-0.3776 0.9625,0.7549 1.75,1.5424 1.75,1.75 0,0.8231 -0.8212,0.2933 -2.1276,-1.3724 z m -149.14143,0.094 c 0.67703,-0.274 2.02703,-0.2906 3,-0.037 0.97297,0.2536 0.41903,0.4777 -1.23097,0.4981 -1.65,0.02 -2.44606,-0.1871 -1.76903,-0.461 z m 22.01903,-0.01 c 0.6875,-0.2774 1.8125,-0.2774 2.5,0 0.6875,0.2774 0.125,0.5044 -1.25,0.5044 -1.375,0 -1.9375,-0.227 -1.25,-0.5044 z m 630.5208,0.058 c 0.3323,-0.3323 1.1948,-0.3678 1.9167,-0.079 0.7977,0.3192 0.5608,0.5562 -0.6042,0.6042 -1.0541,0.043 -1.6448,-0.193 -1.3125,-0.5253 z M 1887,1010.5 c 1.2917,-1.375 2.5736,-2.5 2.8486,-2.5 0.275,0 -0.5569,1.125 -1.8486,2.5 -1.2917,1.375 -2.5736,2.5 -2.8486,2.5 -0.275,0 0.5569,-1.125 1.8486,-2.5 z m -255,0.6224 c 0,-0.4826 0.7875,-1.4951 1.75,-2.25 1.5484,-1.2143 1.607,-1.189 0.5087,0.2196 -0.6828,0.8756 -0.9453,1.8881 -0.5834,2.25 0.3619,0.3619 0.133,0.658 -0.5086,0.658 -0.6417,0 -1.1667,-0.3949 -1.1667,-0.8776 z m -679.26903,-2.7783 c 0.67703,-0.274 2.02703,-0.2906 3,-0.037 0.97297,0.2536 0.41903,0.4777 -1.23097,0.4981 -1.65,0.02 -2.44606,-0.1871 -1.76903,-0.461 z M 1703.5,1007 c 0.9955,-1.1 2.035,-2 2.31,-2 0.275,0 -0.3145,0.9 -1.31,2 -0.9955,1.1 -2.035,2 -2.31,2 -0.275,0 0.3145,-0.9 1.31,-2 z m -739.26166,0.3129 c 0.95609,-0.2503 2.75609,-0.2594 4,-0.02 1.24391,0.2392 0.46166,0.444 -1.73834,0.4551 -2.2,0.011 -3.21775,-0.1846 -2.26166,-0.4349 z m 163.16666,-1.5629 -1.905,-2.25 2.25,1.905 c 2.1144,1.7902 2.7052,2.595 1.905,2.595 -0.1898,0 -1.2023,-1.0125 -2.25,-2.25 z m -83.1342,0.6458 c 0.3323,-0.3323 1.1948,-0.3678 1.9167,-0.079 0.7977,0.3192 0.5608,0.5562 -0.6042,0.6042 -1.0541,0.043 -1.6448,-0.193 -1.3125,-0.5253 z M 1123,1004.059 c 0,-0.5824 0.45,-1.059 1,-1.059 0.55,0 1,0.1984 1,0.441 0,0.2425 -0.45,0.7191 -1,1.059 -0.55,0.3399 -1,0.1415 -1,-0.441 z m -92.7292,-0.6632 c 0.3323,-0.3323 1.1948,-0.3678 1.9167,-0.079 0.7977,0.3192 0.5608,0.5562 -0.6042,0.6042 -1.0541,0.043 -1.6448,-0.193 -1.3125,-0.5253 z M 1896,1001.5 c 1.2917,-1.375 2.5736,-2.5 2.8486,-2.5 0.275,0 -0.5569,1.125 -1.8486,2.5 -1.2917,1.375 -2.5736,2.5 -2.8486,2.5 -0.275,0 0.5569,-1.125 1.8486,-2.5 z m -931.72917,0.8958 c 0.33229,-0.3323 1.1948,-0.3678 1.91667,-0.079 0.79773,0.3192 0.56078,0.5562 -0.60417,0.6042 -1.05416,0.043 -1.64479,-0.193 -1.3125,-0.5253 z m 755.45687,-0.1175 c 1.7752,-0.2209 4.9252,-0.2246 7,-0.01 2.0748,0.2165 0.6223,0.3972 -3.2277,0.4017 -3.85,0 -5.5475,-0.1727 -3.7723,-0.3936 z m 44.4888,-0.012 c 2.594,-0.2052 7.094,-0.2073 10,0 2.9059,0.2026 0.7835,0.3706 -4.7165,0.3732 -5.5,0 -7.8776,-0.1632 -5.2835,-0.3685 z m -793.94567,-0.8705 c 0.33229,-0.3323 1.1948,-0.3678 1.91667,-0.079 0.79773,0.3192 0.56078,0.5562 -0.60417,0.6042 -1.05416,0.043 -1.64479,-0.193 -1.3125,-0.5253 z m 823.97917,-0.1121 c 1.5125,-0.2291 3.9875,-0.2291 5.5,0 1.5125,0.2292 0.275,0.4166 -2.75,0.4166 -3.025,0 -4.2625,-0.1874 -2.75,-0.4166 z m -816,-1.3638 c 1.18874,-0.69237 2.31126,-0.69237 3.5,0 1.4277,0.8316 1.1054,1.0193 -1.75,1.0193 -2.8554,0 -3.1777,-0.1877 -1.75,-1.0193 z m 833.9883,0.393 c 0.9561,-0.2503 2.7561,-0.2594 4,-0.02 1.244,0.2392 0.4617,0.444 -1.7383,0.4551 -2.2,0.011 -3.2177,-0.1846 -2.2617,-0.4349 z M 1637.75,999.33772 c 0.6875,-0.27741 1.8125,-0.27741 2.5,0 0.6875,0.27741 0.125,0.50439 -1.25,0.50439 -1.375,0 -1.9375,-0.22698 -1.25,-0.50439 z m 189.5,-0.0271 c 0.9625,-0.25152 2.5375,-0.25152 3.5,0 0.9625,0.25153 0.175,0.45733 -1.75,0.45733 -1.925,0 -2.7125,-0.2058 -1.75,-0.45733 z m -853.97917,-0.91484 c 0.33229,-0.33229 1.1948,-0.36781 1.91667,-0.0789 0.79773,0.31922 0.56078,0.55618 -0.60417,0.60416 -1.05416,0.0434 -1.64479,-0.19293 -1.3125,-0.52522 z m 655.47917,-0.0581 c 0.6875,-0.27741 1.8125,-0.27741 2.5,0 0.6875,0.27741 0.125,0.50439 -1.25,0.50439 -1.375,0 -1.9375,-0.22698 -1.25,-0.50439 z m 210.981,0.006 c 0.677,-0.27392 2.027,-0.29059 3,-0.0371 0.9729,0.25354 0.419,0.47766 -1.231,0.49804 -1.65,0.0204 -2.4461,-0.18706 -1.769,-0.46099 z m -872.46017,-0.94823 c 0.33229,-0.33229 1.1948,-0.36781 1.91667,-0.0789 0.79773,0.31922 0.56078,0.55618 -0.60417,0.60416 -1.05416,0.0434 -1.64479,-0.19293 -1.3125,-0.52522 z m 653.47917,-0.0581 c 0.6875,-0.27741 1.8125,-0.27741 2.5,0 0.6875,0.27741 0.125,0.50439 -1.25,0.50439 -1.375,0 -1.9375,-0.22698 -1.25,-0.50439 z m 230,0 c 0.6875,-0.27741 1.8125,-0.27741 2.5,0 0.6875,0.27741 0.125,0.50439 -1.25,0.50439 -1.375,0 -1.9375,-0.22698 -1.25,-0.50439 z m -890.47917,-0.94189 c 0.33229,-0.33229 1.1948,-0.36781 1.91667,-0.0789 0.79773,0.31922 0.56078,0.55618 -0.60417,0.60416 -1.05416,0.0434 -1.64479,-0.19293 -1.3125,-0.52522 z m 652.47917,-0.0581 c 0.6875,-0.27741 1.8125,-0.27741 2.5,0 0.6875,0.27741 0.125,0.50439 -1.25,0.50439 -1.375,0 -1.9375,-0.22698 -1.25,-0.50439 z m 247,0 c 0.6875,-0.27741 1.8125,-0.27741 2.5,0 0.6875,0.27741 0.125,0.50439 -1.25,0.50439 -1.375,0 -1.9375,-0.22698 -1.25,-0.50439 z m -906.47917,-0.94189 c 0.33229,-0.33229 1.1948,-0.36781 1.91667,-0.0789 0.79773,0.31922 0.56078,0.55618 -0.60417,0.60416 -1.05416,0.0434 -1.64479,-0.19293 -1.3125,-0.52522 z m 44,0 c 0.33229,-0.33229 1.1948,-0.36781 1.91667,-0.0789 0.79773,0.31922 0.56078,0.55618 -0.60417,0.60416 -1.05416,0.0434 -1.64479,-0.19293 -1.3125,-0.52522 z m 607.47917,-0.0581 c 0.6875,-0.27741 1.8125,-0.27741 2.5,0 0.6875,0.27741 0.125,0.50439 -1.25,0.50439 -1.375,0 -1.9375,-0.22698 -1.25,-0.50439 z m 263.5208,0.0581 c 0.3323,-0.33229 1.1948,-0.36781 1.9167,-0.0789 0.7977,0.31922 0.5608,0.55618 -0.6042,0.60416 -1.0541,0.0434 -1.6448,-0.19293 -1.3125,-0.52522 z M 988.25,994.31067 c 0.9625,-0.25152 2.5375,-0.25152 3.5,0 0.9625,0.25153 0.175,0.45733 -1.75,0.45733 -1.925,0 -2.7125,-0.2058 -1.75,-0.45733 z m 608.5,0.0271 c 0.6875,-0.27741 1.8125,-0.27741 2.5,0 0.6875,0.27741 0.125,0.50439 -1.25,0.50439 -1.375,0 -1.9375,-0.22698 -1.25,-0.50439 z m 279,0 c 0.6875,-0.27741 1.8125,-0.27741 2.5,0 0.6875,0.27741 0.125,0.50439 -1.25,0.50439 -1.375,0 -1.9375,-0.22698 -1.25,-0.50439 z m -916.95625,-1.08111 c 4.01156,-0.1903 10.31156,-0.18902 14,0.003 3.68844,0.19185 0.40625,0.34755 -7.29375,0.34599 -7.7,-0.002 -10.71781,-0.15853 -6.70625,-0.34883 z m 630.47705,0.13922 c 0.3323,-0.33229 1.1948,-0.36781 1.9167,-0.0789 0.7977,0.31922 0.5608,0.55618 -0.6042,0.60416 -1.0541,0.0434 -1.6448,-0.19293 -1.3125,-0.52522 z m 293,0 c 0.3323,-0.33229 1.1948,-0.36781 1.9167,-0.0789 0.7977,0.31922 0.5608,0.55618 -0.6042,0.60416 -1.0541,0.0434 -1.6448,-0.19293 -1.3125,-0.52522 z M 1581.75,992.33772 c 0.6875,-0.27741 1.8125,-0.27741 2.5,0 0.6875,0.27741 0.125,0.50439 -1.25,0.50439 -1.375,0 -1.9375,-0.22698 -1.25,-0.50439 z m -7.4792,-0.94189 c 0.3323,-0.33229 1.1948,-0.36781 1.9167,-0.0789 0.7977,0.31922 0.5608,0.55618 -0.6042,0.60416 -1.0541,0.0434 -1.6448,-0.19293 -1.3125,-0.52522 z m 330.0625,-0.93982 c 0,-0.8008 0.375,-1.45601 0.8334,-1.45601 0.4583,0 0.8333,0.42344 0.8333,0.94098 0,0.51754 -0.375,1.17275 -0.8333,1.45601 -0.4584,0.28327 -0.8334,-0.14017 -0.8334,-0.94098 z M 1479,989.5 c 0.6847,-0.825 1.4699,-1.5 1.7449,-1.5 0.275,0 -0.06,0.675 -0.7449,1.5 -0.6847,0.825 -1.4699,1.5 -1.7449,1.5 -0.275,0 0.06,-0.675 0.7449,-1.5 z m 88.2708,0.89583 c 0.3323,-0.33229 1.1948,-0.36781 1.9167,-0.0789 0.7977,0.31922 0.5608,0.55618 -0.6042,0.60416 -1.0541,0.0434 -1.6448,-0.19293 -1.3125,-0.52522 z m -7.5208,-1.05811 c 0.6875,-0.27741 1.8125,-0.27741 2.5,0 0.6875,0.27741 0.125,0.50439 -1.25,0.50439 -1.375,0 -1.9375,-0.22698 -1.25,-0.50439 z m -7.4792,-0.94189 c 0.3323,-0.33229 1.1948,-0.36781 1.9167,-0.0789 0.7977,0.31922 0.5608,0.55618 -0.6042,0.60416 -1.0541,0.0434 -1.6448,-0.19293 -1.3125,-0.52522 z M 1082.5,982 c -3.2656,-3.3 -5.7124,-6 -5.4374,-6 0.275,0 3.1718,2.7 6.4374,6 3.2656,3.3 5.7124,6 5.4374,6 -0.275,0 -3.1718,-2.7 -6.4374,-6 z m 462.7708,5.39583 c 0.3323,-0.33229 1.1948,-0.36781 1.9167,-0.0789 0.7977,0.31922 0.5608,0.55618 -0.6042,0.60416 -1.0541,0.0434 -1.6448,-0.19293 -1.3125,-0.52522 z m -7,-1 c 0.3323,-0.33229 1.1948,-0.36781 1.9167,-0.0789 0.7977,0.31922 0.5608,0.55618 -0.6042,0.60416 -1.0541,0.0434 -1.6448,-0.19293 -1.3125,-0.52522 z m -7,-1 c 0.3323,-0.33229 1.1948,-0.36781 1.9167,-0.0789 0.7977,0.31922 0.5608,0.55618 -0.6042,0.60416 -1.0541,0.0434 -1.6448,-0.19293 -1.3125,-0.52522 z M 1486,983.5 c 0.6847,-0.825 1.4699,-1.5 1.7449,-1.5 0.275,0 -0.06,0.675 -0.7449,1.5 -0.6847,0.825 -1.4699,1.5 -1.7449,1.5 -0.275,0 0.06,-0.675 0.7449,-1.5 z m 37.75,0.83772 c 0.6875,-0.27741 1.8125,-0.27741 2.5,0 0.6875,0.27741 0.125,0.50439 -1.25,0.50439 -1.375,0 -1.9375,-0.22698 -1.25,-0.50439 z m -6.4792,-0.94189 c 0.3323,-0.33229 1.1948,-0.36781 1.9167,-0.0789 0.7977,0.31922 0.5608,0.55618 -0.6042,0.60416 -1.0541,0.0434 -1.6448,-0.19293 -1.3125,-0.52522 z M 1438,982.34098 c 0,-0.54579 1.2375,-2.08329 2.75,-3.41667 l 2.75,-2.42431 -2.5,3 c -1.375,1.65 -2.6125,3.1875 -2.75,3.41667 -0.1375,0.22916 -0.25,-0.0299 -0.25,-0.57569 z m 72.2708,0.0549 c 0.3323,-0.33229 1.1948,-0.36781 1.9167,-0.0789 0.7977,0.31922 0.5608,0.55618 -0.6042,0.60416 -1.0541,0.0434 -1.6448,-0.19293 -1.3125,-0.52522 z m -7,-1 c 0.3323,-0.33229 1.1948,-0.36781 1.9167,-0.0789 0.7977,0.31922 0.5608,0.55618 -0.6042,0.60416 -1.0541,0.0434 -1.6448,-0.19293 -1.3125,-0.52522 z m -7,-1 c 0.3323,-0.33229 1.1948,-0.36781 1.9167,-0.0789 0.7977,0.31922 0.5608,0.55618 -0.6042,0.60416 -1.0541,0.0434 -1.6448,-0.19293 -1.3125,-0.52522 z M 1065.5,966 c -1.5808,-1.65 -2.6492,-3 -2.3742,-3 0.275,0 1.7934,1.35 3.3742,3 1.5808,1.65 2.6492,3 2.3742,3 -0.275,0 -1.7934,-1.35 -3.3742,-3 z m 158.5,-8.5 c 0.6847,-0.825 1.4699,-1.5 1.7449,-1.5 0.275,0 -0.06,0.675 -0.7449,1.5 -0.6847,0.825 -1.4699,1.5 -1.7449,1.5 -0.275,0 0.06,-0.675 0.7449,-1.5 z m -170.0757,-2.25 -2.4243,-2.75 2.75,2.42431 c 2.5703,2.26589 3.2086,3.07569 2.4243,3.07569 -0.1791,0 -1.4166,-1.2375 -2.75,-2.75 z M 1217,955.5 c 0.6847,-0.825 1.4699,-1.5 1.7449,-1.5 0.275,0 -0.06,0.675 -0.7449,1.5 -0.6847,0.825 -1.4699,1.5 -1.7449,1.5 -0.275,0 0.06,-0.675 0.7449,-1.5 z m 123,-1 c 0.6847,-0.825 1.4699,-1.5 1.7449,-1.5 0.275,0 -0.06,0.675 -0.7449,1.5 -0.6847,0.825 -1.4699,1.5 -1.7449,1.5 -0.275,0 0.06,-0.675 0.7449,-1.5 z m -111,-1.21089 c 0,-0.57432 0.7875,-1.66182 1.75,-2.41667 1.6188,-1.26951 1.64,-1.22245 0.283,0.62756 -0.8069,1.1 -1.5944,2.1875 -1.75,2.41667 -0.1557,0.22916 -0.283,-0.0532 -0.283,-0.62756 z M 1223.5,950 c 0.9955,-1.1 2.035,-2 2.31,-2 0.275,0 -0.3145,0.9 -1.31,2 -0.9955,1.1 -2.035,2 -2.31,2 -0.275,0 0.3145,-0.9 1.31,-2 z m -181,-5 c -1.5808,-1.65 -2.6492,-3 -2.3742,-3 0.275,0 1.7934,1.35 3.3742,3 1.5808,1.65 2.6492,3 2.3742,3 -0.275,0 -1.7934,-1.35 -3.3742,-3 z m 198.07,-1.88669 c -0.3014,-0.48768 0.2346,-1.50018 1.191,-2.25 1.5362,-1.2043 1.5942,-1.17763 0.4977,0.2287 -0.6828,0.8756 -0.9453,1.8881 -0.5834,2.25 0.3619,0.36189 0.3846,0.65799 0.05,0.65799 -0.3342,0 -0.8543,-0.39901 -1.1557,-0.88669 z M 1154,936.05902 c 0,-0.51754 0.4448,-1.21592 0.9885,-1.55194 0.5669,-0.35034 0.7346,0.0511 0.3931,0.94098 -0.6648,1.73242 -1.3816,2.04939 -1.3816,0.61096 z m 25.0833,-4.34199 c 0.2292,-0.15563 1.3167,-0.94313 2.4167,-1.75 1.85,-1.35701 1.8971,-1.33579 0.6276,0.28297 -0.7549,0.9625 -1.8424,1.75 -2.4167,1.75 -0.5743,0 -0.8567,-0.12734 -0.6276,-0.28297 z M 1163,927.5 c 1.2917,-1.375 2.5736,-2.5 2.8486,-2.5 0.275,0 -0.5569,1.125 -1.8486,2.5 -1.2917,1.375 -2.5736,2.5 -2.8486,2.5 -0.275,0 0.5569,-1.125 1.8486,-2.5 z m 6.5,-0.5 c 0.9955,-1.1 2.035,-2 2.31,-2 0.275,0 -0.3145,0.9 -1.31,2 -0.9955,1.1 -2.035,2 -2.31,2 -0.275,0 0.3145,-0.9 1.31,-2 z m 17.5,-1.5 c 0.6847,-0.825 1.4699,-1.5 1.7449,-1.5 0.275,0 -0.06,0.675 -0.7449,1.5 -0.6847,0.825 -1.4699,1.5 -1.7449,1.5 -0.275,0 0.06,-0.675 0.7449,-1.5 z m -6.2667,-8.62409 c 0.6784,-0.68342 1.4853,-0.99067 1.7932,-0.68278 0.3078,0.30789 -0.2472,0.86705 -1.2334,1.24258 -1.4252,0.54268 -1.54,0.42782 -0.5598,-0.5598 z m 68.0167,-17.53819 c 0.6875,-0.27741 1.8125,-0.27741 2.5,0 0.6875,0.27741 0.125,0.50439 -1.25,0.50439 -1.375,0 -1.9375,-0.22698 -1.25,-0.50439 z m 19,0 c 0.6875,-0.27741 1.8125,-0.27741 2.5,0 0.6875,0.27741 0.125,0.50439 -1.25,0.50439 -1.375,0 -1.9375,-0.22698 -1.25,-0.50439 z m 6.5208,-0.94189 c 0.3323,-0.33229 1.1948,-0.36781 1.9167,-0.0789 0.7977,0.31922 0.5608,0.55618 -0.6042,0.60416 -1.0541,0.0434 -1.6448,-0.19293 -1.3125,-0.52522 z M 1013.1579,895 c 0,-1.375 0.227,-1.9375 0.5044,-1.25 0.2774,0.6875 0.2774,1.8125 0,2.5 -0.2774,0.6875 -0.5044,0.125 -0.5044,-1.25 z m -1,-8 c 0,-1.375 0.227,-1.9375 0.5044,-1.25 0.2774,0.6875 0.2774,1.8125 0,2.5 -0.2774,0.6875 -0.5044,0.125 -0.5044,-1.25 z m 290.4262,0.64144 c 0.3464,-0.90279 1.0317,-1.64144 1.5229,-1.64144 1.2859,0 1.1054,0.57887 -0.6299,2.019 -1.2733,1.05678 -1.4197,0.99492 -0.893,-0.37756 z m -7.3133,-2.24561 c 0.3323,-0.33229 1.1948,-0.36781 1.9167,-0.0789 0.7977,0.31922 0.5608,0.55618 -0.6042,0.60416 -1.0541,0.0434 -1.6448,-0.19293 -1.3125,-0.52522 z M 1061,856.5 c 0.6847,-0.825 1.4699,-1.5 1.7449,-1.5 0.275,0 -0.06,0.675 -0.7449,1.5 -0.6847,0.825 -1.4699,1.5 -1.7449,1.5 -0.275,0 0.06,-0.675 0.7449,-1.5 z m 29.2708,-23.10417 c 0.3323,-0.33229 1.1948,-0.36781 1.9167,-0.0789 0.7977,0.31922 0.5608,0.55618 -0.6042,0.60416 -1.0541,0.0434 -1.6448,-0.19293 -1.3125,-0.52522 z m 23,0 c 0.3323,-0.33229 1.1948,-0.36781 1.9167,-0.0789 0.7977,0.31922 0.5608,0.55618 -0.6042,0.60416 -1.0541,0.0434 -1.6448,-0.19293 -1.3125,-0.52522 z m -12.5398,-1.05177 c 0.677,-0.27392 2.027,-0.29059 3,-0.0371 0.9729,0.25354 0.419,0.47766 -1.231,0.49804 -1.65,0.0204 -2.4461,-0.18706 -1.769,-0.46099 z M 861.25,775.31067 c 0.9625,-0.25152 2.5375,-0.25152 3.5,0 0.9625,0.25153 0.175,0.45733 -1.75,0.45733 -1.925,0 -2.7125,-0.2058 -1.75,-0.45733 z m -9.5,-0.97295 c 0.6875,-0.27741 1.8125,-0.27741 2.5,0 0.6875,0.27741 0.125,0.50439 -1.25,0.50439 -1.375,0 -1.9375,-0.22698 -1.25,-0.50439 z m -6.47917,-0.94189 c 0.33229,-0.33229 1.1948,-0.36781 1.91667,-0.0789 0.79773,0.31922 0.56078,0.55618 -0.60417,0.60416 -1.05416,0.0434 -1.64479,-0.19293 -1.3125,-0.52522 z M 809.40499,755.75 807.5,753.5 l 2.25,1.90499 c 2.11444,1.79022 2.70524,2.59501 1.90499,2.59501 -0.18976,0 -1.20226,-1.0125 -2.25,-2.25 z m 26.46745,-7.5 c -1.24387,-1.58606 -1.2085,-1.62143 0.37756,-0.37756 0.9625,0.75485 1.75,1.54235 1.75,1.75 0,0.82304 -0.82119,0.29331 -2.12756,-1.37244 z m 21,0 c -1.24387,-1.58606 -1.2085,-1.62143 0.37756,-0.37756 0.9625,0.75485 1.75,1.54235 1.75,1.75 0,0.82304 -0.82119,0.29331 -2.12756,-1.37244 z m -31.13911,-1.37409 c 0.67834,-0.68342 1.48524,-0.99067 1.79313,-0.68278 0.30789,0.30789 -0.24711,0.86705 -1.23333,1.24258 -1.4252,0.54268 -1.54006,0.42782 -0.5598,-0.5598 z m -17.4625,-6.48008 c 0.33229,-0.33229 1.1948,-0.36781 1.91667,-0.0789 0.79773,0.31922 0.56078,0.55618 -0.60417,0.60416 -1.05416,0.0434 -1.64479,-0.19293 -1.3125,-0.52522 z m -6,-1 c 0.33229,-0.33229 1.1948,-0.36781 1.91667,-0.0789 0.79773,0.31922 0.56078,0.55618 -0.60417,0.60416 -1.05416,0.0434 -1.64479,-0.19293 -1.3125,-0.52522 z m -7,-1 c 0.33229,-0.33229 1.1948,-0.36781 1.91667,-0.0789 0.79773,0.31922 0.56078,0.55618 -0.60417,0.60416 -1.05416,0.0434 -1.64479,-0.19293 -1.3125,-0.52522 z M 838.92431,736.25 836.5,733.5 l 3,2.5 c 1.65,1.375 3.1875,2.6125 3.41667,2.75 0.22916,0.1375 -0.0299,0.25 -0.57569,0.25 -0.54579,0 -2.08329,-1.2375 -3.41667,-2.75 z M 788.75,737.33772 c 0.6875,-0.27741 1.8125,-0.27741 2.5,0 0.6875,0.27741 0.125,0.50439 -1.25,0.50439 -1.375,0 -1.9375,-0.22698 -1.25,-0.50439 z m -7.47917,-0.94189 c 0.33229,-0.33229 1.1948,-0.36781 1.91667,-0.0789 0.79773,0.31922 0.56078,0.55618 -0.60417,0.60416 -1.05416,0.0434 -1.64479,-0.19293 -1.3125,-0.52522 z m -7,-1 c 0.33229,-0.33229 1.1948,-0.36781 1.91667,-0.0789 0.79773,0.31922 0.56078,0.55618 -0.60417,0.60416 -1.05416,0.0434 -1.64479,-0.19293 -1.3125,-0.52522 z m 52.81516,-2.77761 -2.41401,-3.11822 2.86098,2.7197 c 1.57354,1.49583 2.65984,2.89903 2.41401,3.11821 -0.24583,0.21919 -1.53327,-1.00467 -2.86098,-2.71969 z M 829.92431,726.25 827.5,723.5 l 2.75,2.42431 c 2.57029,2.26589 3.20859,3.07569 2.42431,3.07569 -0.17912,0 -1.41662,-1.2375 -2.75,-2.75 z M 820.5,716 c -2.14824,-2.2 -3.6809,-4 -3.4059,-4 0.275,0 2.25766,1.8 4.4059,4 2.14824,2.2 3.6809,4 3.4059,4 -0.275,0 -2.25766,-1.8 -4.4059,-4 z m -20.25,-12.68933 c 0.9625,-0.25152 2.5375,-0.25152 3.5,0 0.9625,0.25153 0.175,0.45733 -1.75,0.45733 -1.925,0 -2.7125,-0.2058 -1.75,-0.45733 z" id="path3019" style="fill:#f7a10c"/>
    <path d="M 0,634.5 0,0 1069.5,0 2139,0 l 0,634.5 0,634.5 -1069.5,0 L 0,1269 0,634.5 z m 1270,549.6876 c 0,-0.9968 -1.3476,-5.7992 -2.9947,-10.672 -1.6471,-4.8727 -2.8846,-8.9577 -2.75,-9.0777 0.1346,-0.12 6.1188,2.3868 13.2982,5.5707 13.3982,5.9418 20.4465,8.3886 20.4465,7.0979 0,-1.4446 -5.865,-6.2996 -18.5764,-15.3773 -7.108,-5.076 -12.9236,-9.9009 -12.9236,-10.7218 0,-0.9771 3.3564,-2.7215 9.7167,-5.05 5.3441,-1.9566 10.0691,-3.9297 10.5,-4.3847 0.7601,-0.8028 -11.4745,-0.3001 -24.7293,1.0163 l -6.5125,0.6467 -12.0939,-15.3678 c -24.0532,-30.5648 -47.1212,-62.8297 -64.6089,-90.3679 -10.4706,-16.4881 -26.9255,-44.67997 -26.3907,-45.21469 0.1861,-0.18617 6.6767,3.07609 14.4235,7.24947 21.3253,11.48842 65.5662,31.42742 66.8603,30.13342 0.2017,-0.2018 -1.5993,-3.9222 -4.0024,-8.2675 -2.4031,-4.3454 -10.7801,-20.0507 -18.6155,-34.9007 -7.8354,-14.85 -14.6618,-27.50855 -15.1697,-28.13012 -0.5079,-0.62157 -9.9132,-5.74331 -20.9006,-11.38166 -10.9873,-5.63834 -19.977,-10.58734 -19.977,-10.99776 0,-0.41042 2.925,-3.31423 6.5,-6.4529 3.575,-3.13868 6.4892,-6.00613 6.4761,-6.37212 -0.013,-0.36599 -4.095,-2.88954 -9.0706,-5.60787 -8.8253,-4.82149 -8.9945,-4.9818 -6.9145,-6.55078 2.0192,-1.52305 2.7179,-1.32186 13.1753,3.79354 l 11.043,5.40189 3.1964,-1.72138 c 3.1033,-1.67124 3.3346,-1.65114 7.9409,0.68983 l 4.7445,2.41121 -5.7956,4.7041 c -3.1875,2.58725 -6.3621,4.70633 -7.0546,4.70906 -0.6925,0.003 -2.6871,-1.35974 -4.4325,-3.0277 l -3.1734,-3.03266 -4.7839,4.71201 c -4.6655,4.59528 -4.7332,4.74761 -2.7333,6.14838 3.0331,2.12448 40.782,20.78458 45.0591,22.27369 3.4651,1.20639 3.8971,1.11323 7.5,-1.61718 6.198,-4.69714 20.9099,-19.56617 19.8231,-20.03487 -0.55,-0.23719 -11.9848,-5.83805 -25.4106,-12.44633 -22.1587,-10.90671 -24.2367,-12.14216 -22.5265,-13.39274 1.6599,-1.2137 2.6877,-0.97299 8.6356,2.02234 8.0123,4.03493 9.7962,4.13771 18.0287,1.03872 7.3706,-2.77456 20.3896,-9.20963 21.1626,-10.46036 0.2962,-0.47931 -5.1828,-2.97151 -12.1756,-5.53823 -17.6865,-6.49186 -23.2332,-9.18982 -20.886,-10.15913 1.179,-0.48687 6.6833,0.879 15.5,3.84624 20.1153,6.76978 29.007,8.66049 40.6718,8.64841 5.5,-0.006 12.936,-0.63281 16.5245,-1.39358 7.5734,-1.6056 20.9207,-6.60367 25.9755,-9.72686 l 3.5,-2.16254 -10,-1.74282 c -19.6658,-3.4274 -27.7689,-5.67781 -91.5,-25.41188 -88.2631,-27.33028 -92.5604,-28.37587 -109.0308,-26.52878 -14.5014,1.62626 -24.0945,7.08845 -29.6937,16.90719 -5.036,8.83103 -4.3875,8.73234 -14.1678,2.15607 -29.7807,-20.02454 -82.14404,-48.19476 -138.57839,-74.55193 -39.29964,-18.35455 -50.28137,-24.1657 -55.64502,-29.44541 -2.67244,-2.63063 -7.55397,-6.21936 -10.84782,-7.97497 -4.57092,-2.43627 -8.37729,-5.8809 -16.07695,-14.54907 -9.28648,-10.45458 -18.2183,-18.53851 -23.64378,-21.39931 -7.51633,-3.96329 -14.67476,3.14792 -9.5435,9.48054 0.95027,1.17276 6.70074,4.65296 12.77882,7.73379 C 819.95722,726.64069 829,733.01601 829,735.07792 c 0,0.50715 -1.2375,0.92065 -2.75,0.91891 -1.5125,-0.002 -5.90419,0.93166 -9.75932,2.07423 l -7.00931,2.07739 -17.4519,-2.52968 c -9.59854,-1.39133 -17.59443,-2.38714 -17.76864,-2.21293 -0.17421,0.17421 6.78333,4.07606 15.46121,8.67076 9.29659,4.92231 18.53748,10.66598 22.49562,13.98215 12.59351,10.55098 23.4891,14.72038 44.50798,17.03182 9.3918,1.03282 12.3755,1.87352 23.25215,6.55164 22.58326,9.71321 53.10973,27.06592 85.02221,48.33069 24.70025,16.45893 36.9951,25.47779 39.159,28.7251 3.1029,4.65641 6.6539,17.41666 8.2646,29.69841 2.0103,15.32931 3.9895,22.65915 8.3788,31.03118 4.6733,8.91378 9.9181,14.49827 36.6976,39.07446 29.8574,27.40086 34.111,32.06102 39.7744,43.57625 2.5486,5.1819 4.9435,10.7199 5.322,12.3066 l 0.6881,2.8849 -4.8922,-0.6953 c -11.2135,-1.5935 -65.197,-12.8457 -81.6467,-17.01817 -12.6856,-3.21771 -21.36323,-4.79645 -30.3952,-5.52986 C 971.80186,992.84509 953.64748,992.83187 950,994 c -1.375,0.44035 -2.05,0.8401 -1.5,0.88832 7.93648,0.69587 30.30626,4.63252 29.32145,5.15998 -0.7268,0.3893 -4.02145,1.0324 -7.32145,1.4292 -7.07591,0.8506 -21.12415,5.1053 -22.10681,6.6953 -0.49481,0.8006 1.65933,0.9241 7.71008,0.4418 4.6182,-0.3682 11.54673,-0.9154 15.39673,-1.2162 l 7,-0.5468 -5,2.4419 c -4.93017,2.4077 -11.99202,8.7426 -8.24477,7.396 0.96537,-0.3469 5.46537,-1.4145 10,-2.3725 8.60171,-1.8172 32.85927,-2.5333 34.37927,-1.015 0.4416,0.4412 -0.02,3.8162 -1.026,7.5 -2.9264,10.7174 -3.5075,14.331 -2.2361,13.9072 0.6154,-0.2051 4.0867,-4.1611 7.7141,-8.7911 l 6.5953,-8.4181 11.9091,0.1972 c 11.6673,0.1932 12.2321,0.3105 27.8159,5.7784 25.0615,8.7934 45.7036,13.6823 67.4664,15.979 l 6.3732,0.6726 -0.7005,-3.8136 c -0.3853,-2.0975 -2.728,-10.0389 -5.2059,-17.6476 -2.4779,-7.6087 -4.2459,-14.0934 -3.9288,-14.4105 1.0818,-1.0818 4.8424,3.2564 31.4183,36.2445 49.8259,61.8476 64.5538,79.9937 74.8045,92.1661 7.6723,9.1106 9.8634,12.3128 8.724,12.75 -0.8369,0.3212 -8.4598,0.5839 -16.9398,0.5839 -8.5456,0 -15.4182,0.4038 -15.4182,0.906 0,0.9677 2.4464,1.8864 22,8.2617 17.0777,5.568 19.0325,6.7175 25.6424,15.0795 6.6743,8.4434 13.4329,15.7528 14.5658,15.7528 0.4355,0 0.7918,-0.8156 0.7918,-1.8124 z M 829.25,750.50913 c -3.70372,-1.60979 -4.1635,-3.08442 -1.25,-4.00913 2.40694,-0.76393 5.8708,0.18428 8.22642,2.25193 3.60667,3.16576 -1.04185,4.33661 -6.97642,1.7572 z m 851.4276,373.42137 c 16.0808,-2.1988 33.2405,-9.5214 47.819,-20.4061 l 8.0034,-5.9755 -7,-0.7238 c -27.7476,-2.869 -54.278,-6.9828 -76.4726,-11.8579 l -13.4726,-2.9592 -5.0377,4.9751 -5.0377,4.9751 -10.9897,-2.4617 c -10.0338,-2.2475 -23.9469,-6.199 -30.2074,-8.5793 l -2.4969,-0.9493 3.7191,-4.5388 c 2.0456,-2.4963 3.5564,-4.6591 3.3574,-4.8063 -0.1991,-0.1472 -4.1869,-1.2598 -8.8619,-2.4723 -4.675,-1.2125 -16.0571,-4.5192 -25.2936,-7.3483 -14.1666,-4.339 -16.5806,-5.3566 -15.4323,-6.5049 1.1483,-1.1483 3.9316,-0.6635 17.7936,3.099 67.4773,18.315 122.0385,28.7997 161.9323,31.1176 26.4246,1.5353 49.3787,-4.5225 75.1437,-19.8313 9.5982,-5.703 21.3901,-14.4821 20.5629,-15.3093 -0.255,-0.255 -8.3225,0.056 -17.9278,0.6924 -27.199,1.8006 -70.1576,-0.8539 -107.2788,-6.6289 -8.8,-1.3691 -17.7704,-2.8987 -19.9342,-3.3992 -3.9197,-0.9067 -3.9552,-0.8874 -9.5836,5.2322 l -5.6493,6.1423 -8.4165,-1.7726 c -14.7612,-3.109 -34.356,-7.7861 -35.6474,-8.5089 -0.9021,-0.5048 -0.4146,-1.7114 1.7546,-4.3431 2.6464,-3.2106 2.794,-3.7041 1.2401,-4.1488 -0.97,-0.2776 -7.6137,-1.8938 -14.7637,-3.5914 -15.324,-3.6384 -36.5,-10.0716 -36.5,-11.0886 0,-0.3926 0.637,-1.2425 1.4157,-1.8887 1.0921,-0.9064 2.6347,-0.8281 6.75,0.3428 15.8612,4.5126 84.0598,16.6781 114.8343,20.4844 35.8717,4.4368 89.2038,7.6803 112,6.8116 10.7562,-0.41 16.9623,-1.1895 24.0368,-3.019 23.0493,-5.961 46.3453,-18.8902 64.3012,-35.6871 6.6298,-6.2019 17.2628,-18.73523 16.5225,-19.4755 -0.2107,-0.21069 -3.5244,0.27542 -7.3639,1.08025 -16.3075,3.41833 -42.4907,6.61827 -72.4214,8.85089 -30.7287,2.29216 -84.2869,3.79006 -101.9243,2.85056 l -15.3491,-0.8176 -4.0754,4.5044 c -2.2415,2.4773 -6.0905,6.6958 -8.5532,9.3743 l -4.4778,4.8699 -10.5977,-1.1838 c -14.0524,-1.5699 -46.3926,-7.0008 -47.3754,-7.9558 -0.4278,-0.4157 1.0347,-2.8148 3.25,-5.3315 2.2152,-2.5166 4.0259,-4.9566 4.0237,-5.4222 0,-0.46565 -13.8397,-2.55484 -30.75,-4.6427 -29.5444,-3.64774 -112.6012,-15.12463 -116.7562,-16.13352 -1.4289,-0.34696 -4.2158,1.38278 -9.6385,5.98221 l -7.6285,6.4703 -6.8614,-1.55076 c -8.3363,-1.88411 -29.6908,-7.62309 -30.3011,-8.14338 -0.2419,-0.20616 1.7126,-2.55997 4.3431,-5.23069 l 4.7829,-4.85586 -7.8432,-1.70881 c -4.3137,-0.93985 -26.4111,-6.16934 -49.1053,-11.6211 C 1368.5435,953.46053 1349.2757,949 1348.4203,949 c -0.8553,0 -4.1106,2.08163 -7.2339,4.62584 -3.1233,2.54422 -6.1304,4.78693 -6.6826,4.98382 -0.5521,0.19688 -8.1654,-2.01532 -16.9184,-4.916 l -15.9145,-5.27398 5.1645,-3.31408 c 2.8405,-1.82275 5.1646,-3.66904 5.1646,-4.10286 0,-0.99069 1.0659,-0.58369 -27.5,-10.50045 -13.2,-4.58242 -30.844,-10.81873 -39.209,-13.85846 l -15.209,-5.52677 -7.9414,3.44147 c -4.3678,1.89281 -8.4363,3.44147 -9.041,3.44147 -3.4575,0 0.7232,2.64412 15.9141,10.06507 l 17.0137,8.31141 -3.1885,3.28974 -3.1885,3.28974 3.9248,1.64538 c 31.0376,13.01172 96.6277,34.73965 132.3759,43.85197 l 16.4512,4.19344 -4.3327,2.58367 c -5.0447,3.00835 -1.7508,3.64333 -35.1005,-6.76638 -31.6519,-9.87979 -77.7985,-26.46064 -105.4748,-37.89801 l -10.7601,-4.44667 -3.8671,3.10769 c -2.1269,1.70922 -3.8671,3.38371 -3.8671,3.72108 0,0.33737 1.2375,1.11996 2.75,1.73911 1.5125,0.61914 12.425,5.15307 24.25,10.07541 30.6241,12.74773 105.1134,40.23735 109.0322,40.23735 1.935,0 0.9037,2.0721 -1.5987,3.2123 -2.1726,0.9899 -4.1298,0.6629 -12.75,-2.1297 -25.4761,-8.25343 -85.5117,-31.72538 -113.4377,-44.35046 l -11.9418,-5.3988 -3.6843,3.37635 -3.6842,3.37636 9.7231,4.51279 c 24.0073,11.14258 51.9985,22.39749 92.8414,37.33046 13.75,5.0273 25.675,9.3958 26.5,9.7078 1.0934,0.4134 0.6858,0.9637 -1.5039,2.0299 -2.8736,1.3993 -3.8282,1.1619 -22,-5.4701 -26.3176,-9.6049 -52.7498,-20.20599 -88.3157,-35.42067 -16.6758,-7.1337 -30.4642,-12.81419 -30.6408,-12.6233 -0.519,0.56062 10.1049,22.53909 12.5644,25.99315 2.6165,3.67446 12.7039,8.65242 49.396,24.37612 44.5855,19.1062 132.9196,53.1725 170.8831,65.9015 45.745,15.3382 119.5941,33.3196 162.1169,39.4736 36.3349,5.2584 66.0536,7.101 81.1776,5.0332 z M 373.438,681.98236 C 431.7039,639.64206 479.66411,605 480.01626,605 c 0.35215,0 48.30505,34.63997 106.562,76.9777 58.25696,42.33774 106.22973,76.98774 106.60617,77 0.37643,0.0123 -0.16649,-2.5652 -1.2065,-5.7277 -27.74665,-84.37326 -78.98029,-243.80145 -78.63603,-244.69859 0.25586,-0.66676 48.12947,-35.8261 106.3858,-78.13185 L 825.64831,353.5 693.71515,353 561.78199,352.5 520.966,227 c -29.54002,-90.82893 -41.03376,-124.94747 -41.60427,-123.5 -0.43355,1.1 -18.86188,57.575 -40.95184,125.5 l -40.16357,123.5 -131.93473,0.5 -131.93473,0.5 105.90536,76.91262 c 58.24794,42.30194 106.11774,77.46608 106.37732,78.14253 0.35567,0.92687 -50.89009,160.46271 -77.6367,241.69485 -1.58457,4.8125 -2.57544,8.74206 -2.20194,8.73236 0.37351,-0.01 48.3512,-34.6597 106.6171,-77 z" id="path3017" style="fill:#ec1b23"/>
  </g>
</svg>